G04 Layer_Physical_Order=1*
G04 Layer_Color=255*
%FSLAX44Y44*%
%MOMM*%
G71*
G01*
G75*
%ADD10R,0.6500X0.8000*%
%ADD11R,0.8000X0.8000*%
%ADD12C,0.5000*%
%ADD13R,1.7000X1.7000*%
%ADD14C,1.7000*%
%ADD15C,2.0000*%
%ADD16C,4.0000*%
G36*
X333687Y153759D02*
X337122Y152336D01*
X340073Y150073D01*
X342337Y147122D01*
X343759Y143687D01*
X344202Y140325D01*
X344137Y140000D01*
Y20000D01*
X344202Y19675D01*
X343759Y16313D01*
X342337Y12878D01*
X340073Y9927D01*
X337122Y7664D01*
X333687Y6241D01*
X330325Y5798D01*
X330000Y5863D01*
X162539D01*
X162476Y7133D01*
X164509Y7333D01*
X168844Y8648D01*
X172840Y10784D01*
X176342Y13658D01*
X179216Y17160D01*
X181352Y21156D01*
X182667Y25491D01*
X183111Y30000D01*
X182667Y34509D01*
X181352Y38844D01*
X179216Y42840D01*
X176342Y46342D01*
X172840Y49216D01*
X168844Y51352D01*
X164509Y52667D01*
X160000Y53111D01*
X155491Y52667D01*
X151156Y51352D01*
X147160Y49216D01*
X143658Y46342D01*
X140784Y42840D01*
X138648Y38844D01*
X137333Y34509D01*
X136889Y30000D01*
X137333Y25491D01*
X138648Y21156D01*
X140784Y17160D01*
X143658Y13658D01*
X147160Y10784D01*
X151156Y8648D01*
X155491Y7333D01*
X157524Y7133D01*
X157461Y5863D01*
X20000D01*
X19675Y5798D01*
X16313Y6241D01*
X12878Y7664D01*
X9927Y9927D01*
X7664Y12878D01*
X6241Y16313D01*
X5798Y19675D01*
X5863Y20000D01*
Y140000D01*
X5798Y140325D01*
X6241Y143687D01*
X7664Y147122D01*
X9927Y150073D01*
X12878Y152336D01*
X16313Y153759D01*
X19675Y154202D01*
X20000Y154137D01*
X157462D01*
X157524Y152867D01*
X155491Y152667D01*
X151156Y151352D01*
X147160Y149216D01*
X143658Y146342D01*
X140784Y142840D01*
X138648Y138844D01*
X137333Y134509D01*
X136889Y130000D01*
X137333Y125491D01*
X138648Y121156D01*
X140784Y117160D01*
X143658Y113658D01*
X147160Y110784D01*
X151156Y108648D01*
X155491Y107333D01*
X160000Y106889D01*
X164509Y107333D01*
X168844Y108648D01*
X172840Y110784D01*
X176342Y113658D01*
X179216Y117160D01*
X181352Y121156D01*
X182667Y125491D01*
X183111Y130000D01*
X182667Y134509D01*
X181352Y138844D01*
X179216Y142840D01*
X176342Y146342D01*
X172840Y149216D01*
X168844Y151352D01*
X164509Y152667D01*
X162476Y152867D01*
X162539Y154137D01*
X330000D01*
X330325Y154202D01*
X333687Y153759D01*
D02*
G37*
%LPC*%
G36*
X95481Y78530D02*
X84270D01*
Y67319D01*
X86274Y67583D01*
X89324Y68846D01*
X91944Y70856D01*
X93954Y73476D01*
X95217Y76526D01*
X95481Y78530D01*
D02*
G37*
G36*
X218730Y78730D02*
X209032D01*
X209244Y77118D01*
X210357Y74432D01*
X212126Y72126D01*
X214432Y70357D01*
X217118Y69244D01*
X218730Y69032D01*
Y78730D01*
D02*
G37*
G36*
X81730Y78530D02*
X70519D01*
X70783Y76526D01*
X72046Y73476D01*
X74056Y70856D01*
X76676Y68846D01*
X79726Y67583D01*
X81730Y67319D01*
Y78530D01*
D02*
G37*
G36*
X83000Y42112D02*
X79606Y41665D01*
X76444Y40356D01*
X73728Y38272D01*
X71645Y35556D01*
X70335Y32394D01*
X69888Y29000D01*
X70335Y25606D01*
X71645Y22444D01*
X73728Y19728D01*
X76444Y17644D01*
X79606Y16335D01*
X83000Y15888D01*
X86394Y16335D01*
X89556Y17644D01*
X92272Y19728D01*
X94355Y22444D01*
X95665Y25606D01*
X96112Y29000D01*
X95665Y32394D01*
X94355Y35556D01*
X92272Y38272D01*
X89556Y40356D01*
X86394Y41665D01*
X83000Y42112D01*
D02*
G37*
G36*
Y143712D02*
X79606Y143265D01*
X76444Y141955D01*
X73728Y139872D01*
X71645Y137156D01*
X70335Y133994D01*
X69888Y130600D01*
X70335Y127206D01*
X71645Y124044D01*
X73728Y121328D01*
X76444Y119244D01*
X79606Y117935D01*
X83000Y117488D01*
X86165Y117905D01*
X125000Y79069D01*
Y73000D01*
X126392D01*
Y65000D01*
X126819Y62854D01*
X128035Y61035D01*
X129854Y59819D01*
X132000Y59392D01*
X188677D01*
X197435Y50635D01*
X199254Y49419D01*
X201400Y48992D01*
X208500D01*
Y43100D01*
X231500D01*
Y66100D01*
X208500D01*
Y60208D01*
X203723D01*
X194965Y68965D01*
X193146Y70181D01*
X191000Y70608D01*
X137608D01*
Y73000D01*
X139000D01*
Y87000D01*
X132931D01*
X94804Y125127D01*
X95665Y127206D01*
X96112Y130600D01*
X95665Y133994D01*
X94355Y137156D01*
X92272Y139872D01*
X89556Y141955D01*
X86394Y143265D01*
X83000Y143712D01*
D02*
G37*
G36*
X230968Y78730D02*
X221270D01*
Y69032D01*
X222882Y69244D01*
X225568Y70357D01*
X227874Y72126D01*
X229643Y74432D01*
X230756Y77118D01*
X230968Y78730D01*
D02*
G37*
G36*
X221270Y90968D02*
Y81270D01*
X230968D01*
X230756Y82882D01*
X229643Y85568D01*
X227874Y87874D01*
X225568Y89643D01*
X222882Y90756D01*
X221270Y90968D01*
D02*
G37*
G36*
X220000Y116999D02*
X216998Y116604D01*
X214200Y115445D01*
X211798Y113602D01*
X209955Y111200D01*
X209486Y110068D01*
X208435Y109365D01*
X184677Y85608D01*
X183000D01*
Y87000D01*
X170770D01*
X170500Y87000D01*
X169500D01*
X169230Y87000D01*
X157000D01*
Y85608D01*
X155000D01*
Y87000D01*
X141000D01*
Y73000D01*
X155000D01*
Y74392D01*
X157000D01*
Y73000D01*
X169230D01*
X169500Y73000D01*
X170500D01*
X170770Y73000D01*
X183000D01*
Y74392D01*
X187000D01*
X189146Y74819D01*
X190965Y76035D01*
X211985Y97055D01*
X214200Y95355D01*
X216998Y94196D01*
X220000Y93801D01*
X223002Y94196D01*
X225800Y95355D01*
X228202Y97198D01*
X230045Y99600D01*
X231204Y102398D01*
X231599Y105400D01*
X231204Y108402D01*
X230045Y111200D01*
X228202Y113602D01*
X225800Y115445D01*
X223002Y116604D01*
X220000Y116999D01*
D02*
G37*
G36*
X218730Y90968D02*
X217118Y90756D01*
X214432Y89643D01*
X212126Y87874D01*
X210357Y85568D01*
X209244Y82882D01*
X209032Y81270D01*
X218730D01*
Y90968D01*
D02*
G37*
G36*
X81730Y92281D02*
X79726Y92017D01*
X76676Y90754D01*
X74056Y88744D01*
X72046Y86124D01*
X70783Y83074D01*
X70519Y81070D01*
X81730D01*
Y92281D01*
D02*
G37*
G36*
X84270D02*
Y81070D01*
X95481D01*
X95217Y83074D01*
X93954Y86124D01*
X91944Y88744D01*
X89324Y90754D01*
X86274Y92017D01*
X84270Y92281D01*
D02*
G37*
%LPD*%
D10*
X176750Y80000D02*
D03*
X163250D02*
D03*
D11*
X148000D02*
D03*
X132000D02*
D03*
D12*
X83000Y129000D02*
Y130600D01*
Y129000D02*
X132000Y80000D01*
X212400Y105400D02*
X220000D01*
X187000Y80000D02*
X212400Y105400D01*
X176750Y80000D02*
X187000D01*
X201400Y54600D02*
X220000D01*
X191000Y65000D02*
X201400Y54600D01*
X132000Y65000D02*
X191000D01*
X132000D02*
Y80000D01*
X148000D02*
X163250D01*
D13*
X220000Y54600D02*
D03*
D14*
Y80000D02*
D03*
Y105400D02*
D03*
D15*
X83000Y29000D02*
D03*
Y79800D02*
D03*
Y130600D02*
D03*
D16*
X160000Y30000D02*
D03*
Y130000D02*
D03*
M02*
