G04 Layer_Color=16711935*
%FSLAX44Y44*%
%MOMM*%
G71*
G01*
G75*
%ADD20C,0.1500*%
%ADD27C,0.2540*%
%ADD28C,0.1524*%
D20*
X0Y20000D02*
G03*
X20000Y0I20000J0D01*
G01*
Y160000D02*
G03*
X0Y140000I0J-20000D01*
G01*
X350000D02*
G03*
X330000Y160000I-20000J0D01*
G01*
Y0D02*
G03*
X350000Y20000I0J20000D01*
G01*
X0D02*
Y140000D01*
X20000Y160000D02*
X330000D01*
X20000Y0D02*
X330000D01*
X350000Y20000D02*
Y140000D01*
D27*
Y143290D02*
Y212540D01*
X0Y143290D02*
Y212540D01*
X210548Y210000D02*
X350000D01*
X0D02*
X131323D01*
X334760Y215080D02*
X350000Y210000D01*
X334760Y204920D02*
X350000Y210000D01*
X0D02*
X15240Y204920D01*
X0Y210000D02*
X15240Y215080D01*
X-62540Y0D02*
X16710D01*
X-62540Y160000D02*
X16710D01*
X-60000Y0D02*
Y37593D01*
Y114279D02*
Y160000D01*
Y0D02*
X-54920Y15240D01*
X-65080D02*
X-60000Y0D01*
X-65080Y144760D02*
X-60000Y160000D01*
X-54920Y144760D01*
D28*
X135387Y211015D02*
X137927Y213554D01*
X143005D01*
X145544Y211015D01*
Y208476D01*
X143005Y205937D01*
X140466D01*
X143005D01*
X145544Y203398D01*
Y200858D01*
X143005Y198319D01*
X137927D01*
X135387Y200858D01*
X160779Y213554D02*
X150623D01*
Y205937D01*
X155701Y208476D01*
X158240D01*
X160779Y205937D01*
Y200858D01*
X158240Y198319D01*
X153162D01*
X150623Y200858D01*
X168397Y195780D02*
X170936Y198319D01*
Y200858D01*
X168397D01*
Y198319D01*
X170936D01*
X168397Y195780D01*
X165858Y193241D01*
X181093Y211015D02*
X183632Y213554D01*
X188710D01*
X191249Y211015D01*
Y200858D01*
X188710Y198319D01*
X183632D01*
X181093Y200858D01*
Y211015D01*
X196328D02*
X198867Y213554D01*
X203945D01*
X206485Y211015D01*
Y200858D01*
X203945Y198319D01*
X198867D01*
X196328Y200858D01*
Y211015D01*
X-48319Y41657D02*
Y46735D01*
Y44196D01*
X-63554D01*
X-61015Y41657D01*
X-63554Y64510D02*
X-61015Y59431D01*
X-55937Y54353D01*
X-50858D01*
X-48319Y56892D01*
Y61971D01*
X-50858Y64510D01*
X-53398D01*
X-55937Y61971D01*
Y54353D01*
X-45780Y72127D02*
X-48319Y74666D01*
X-50858D01*
Y72127D01*
X-48319D01*
Y74666D01*
X-45780Y72127D01*
X-43241Y69588D01*
X-61015Y84823D02*
X-63554Y87362D01*
Y92441D01*
X-61015Y94980D01*
X-50858D01*
X-48319Y92441D01*
Y87362D01*
X-50858Y84823D01*
X-61015D01*
Y100058D02*
X-63554Y102597D01*
Y107676D01*
X-61015Y110215D01*
X-50858D01*
X-48319Y107676D01*
Y102597D01*
X-50858Y100058D01*
X-61015D01*
M02*
